<svg width="11" height="7" viewBox="0 0 11 7" fill="none" xmlns="http://www.w3.org/2000/svg">
    <path d="M10 6.50002C9.86839 6.50078 9.73793 6.47555 9.61609 6.42579C9.49426 6.37602 9.38344 6.3027 9.29 6.21002L6 2.90002L2.7 6.08002C2.51264 6.26627 2.25919 6.37081 1.995 6.37081C1.73081 6.37081 1.47736 6.26627 1.29 6.08002C1.19627 5.98705 1.12188 5.87645 1.07111 5.75459C1.02034 5.63273 0.994202 5.50203 0.994202 5.37002C0.994202 5.23801 1.02034 5.1073 1.07111 4.98544C1.12188 4.86358 1.19627 4.75298 1.29 4.66002L5.29 0.800017C5.47693 0.61679 5.72825 0.51416 5.99 0.51416C6.25175 0.51416 6.50307 0.61679 6.69 0.800017L10.69 4.80002C10.7837 4.89298 10.8581 5.00358 10.9089 5.12544C10.9597 5.2473 10.9858 5.37801 10.9858 5.51002C10.9858 5.64203 10.9597 5.77273 10.9089 5.89459C10.8581 6.01645 10.7837 6.12705 10.69 6.22002C10.5046 6.3987 10.2575 6.49899 10 6.50002V6.50002Z" fill="black"/>
</svg>

